<mxfile host="Electron" agent="Mozilla/5.0 (X11; Linux x86_64) AppleWebKit/537.36 (KHTML, like Gecko) draw.io/24.7.17 Chrome/128.0.6613.36 Electron/32.0.1 Safari/537.36" version="24.7.17">
  <diagram name="Page-1" id="Ug3LczjTgij-MtRk7HPU">
    <mxGraphModel dx="1434" dy="835" grid="1" gridSize="10" guides="1" tooltips="1" connect="1" arrows="1" fold="1" page="1" pageScale="1" pageWidth="850" pageHeight="1100" math="0" shadow="0">
      <root>
        <mxCell id="0" />
        <mxCell id="1" parent="0" />
        <mxCell id="QYxucK7KHDH3wcOCc8d--9" style="edgeStyle=orthogonalEdgeStyle;rounded=0;orthogonalLoop=1;jettySize=auto;html=1;entryX=0;entryY=0.5;entryDx=0;entryDy=0;" edge="1" parent="1" source="QYxucK7KHDH3wcOCc8d--1" target="QYxucK7KHDH3wcOCc8d--3">
          <mxGeometry relative="1" as="geometry" />
        </mxCell>
        <mxCell id="QYxucK7KHDH3wcOCc8d--10" value="1" style="edgeLabel;html=1;align=center;verticalAlign=middle;resizable=0;points=[];" vertex="1" connectable="0" parent="QYxucK7KHDH3wcOCc8d--9">
          <mxGeometry x="-0.52" y="-3" relative="1" as="geometry">
            <mxPoint as="offset" />
          </mxGeometry>
        </mxCell>
        <mxCell id="QYxucK7KHDH3wcOCc8d--11" value="*" style="edgeLabel;html=1;align=center;verticalAlign=middle;resizable=0;points=[];" vertex="1" connectable="0" parent="QYxucK7KHDH3wcOCc8d--9">
          <mxGeometry x="0.4" y="1" relative="1" as="geometry">
            <mxPoint as="offset" />
          </mxGeometry>
        </mxCell>
        <mxCell id="QYxucK7KHDH3wcOCc8d--13" style="edgeStyle=orthogonalEdgeStyle;rounded=0;orthogonalLoop=1;jettySize=auto;html=1;entryX=0.5;entryY=1;entryDx=0;entryDy=0;" edge="1" parent="1" source="QYxucK7KHDH3wcOCc8d--1" target="QYxucK7KHDH3wcOCc8d--4">
          <mxGeometry relative="1" as="geometry" />
        </mxCell>
        <mxCell id="QYxucK7KHDH3wcOCc8d--14" value="1" style="edgeLabel;html=1;align=center;verticalAlign=middle;resizable=0;points=[];" vertex="1" connectable="0" parent="QYxucK7KHDH3wcOCc8d--13">
          <mxGeometry x="-0.6857" relative="1" as="geometry">
            <mxPoint as="offset" />
          </mxGeometry>
        </mxCell>
        <mxCell id="QYxucK7KHDH3wcOCc8d--15" value="*" style="edgeLabel;html=1;align=center;verticalAlign=middle;resizable=0;points=[];" vertex="1" connectable="0" parent="QYxucK7KHDH3wcOCc8d--13">
          <mxGeometry x="0.5143" y="-1" relative="1" as="geometry">
            <mxPoint as="offset" />
          </mxGeometry>
        </mxCell>
        <mxCell id="QYxucK7KHDH3wcOCc8d--16" style="edgeStyle=orthogonalEdgeStyle;rounded=0;orthogonalLoop=1;jettySize=auto;html=1;exitX=0.75;exitY=0;exitDx=0;exitDy=0;entryX=0.5;entryY=1;entryDx=0;entryDy=0;" edge="1" parent="1" source="QYxucK7KHDH3wcOCc8d--1" target="QYxucK7KHDH3wcOCc8d--5">
          <mxGeometry relative="1" as="geometry" />
        </mxCell>
        <mxCell id="QYxucK7KHDH3wcOCc8d--17" value="1" style="edgeLabel;html=1;align=center;verticalAlign=middle;resizable=0;points=[];" vertex="1" connectable="0" parent="QYxucK7KHDH3wcOCc8d--16">
          <mxGeometry x="-0.8609" y="3" relative="1" as="geometry">
            <mxPoint as="offset" />
          </mxGeometry>
        </mxCell>
        <mxCell id="QYxucK7KHDH3wcOCc8d--18" value="*" style="edgeLabel;html=1;align=center;verticalAlign=middle;resizable=0;points=[];" vertex="1" connectable="0" parent="QYxucK7KHDH3wcOCc8d--16">
          <mxGeometry x="0.7913" y="1" relative="1" as="geometry">
            <mxPoint as="offset" />
          </mxGeometry>
        </mxCell>
        <mxCell id="QYxucK7KHDH3wcOCc8d--1" value="Pacient&lt;div&gt;+ID&lt;/div&gt;&lt;div&gt;+jméno&lt;/div&gt;&lt;div&gt;+věk&lt;/div&gt;&lt;div&gt;+anamnéza&lt;/div&gt;" style="rounded=0;whiteSpace=wrap;html=1;" vertex="1" parent="1">
          <mxGeometry x="330" y="250" width="160" height="90" as="geometry" />
        </mxCell>
        <mxCell id="QYxucK7KHDH3wcOCc8d--6" style="edgeStyle=orthogonalEdgeStyle;rounded=0;orthogonalLoop=1;jettySize=auto;html=1;entryX=0;entryY=0.5;entryDx=0;entryDy=0;" edge="1" parent="1" source="QYxucK7KHDH3wcOCc8d--2" target="QYxucK7KHDH3wcOCc8d--1">
          <mxGeometry relative="1" as="geometry" />
        </mxCell>
        <mxCell id="QYxucK7KHDH3wcOCc8d--7" value="1" style="edgeLabel;html=1;align=center;verticalAlign=middle;resizable=0;points=[];" vertex="1" connectable="0" parent="QYxucK7KHDH3wcOCc8d--6">
          <mxGeometry x="-0.6333" y="-3" relative="1" as="geometry">
            <mxPoint as="offset" />
          </mxGeometry>
        </mxCell>
        <mxCell id="QYxucK7KHDH3wcOCc8d--8" value="*" style="edgeLabel;html=1;align=center;verticalAlign=middle;resizable=0;points=[];" vertex="1" connectable="0" parent="QYxucK7KHDH3wcOCc8d--6">
          <mxGeometry x="0.3333" y="-1" relative="1" as="geometry">
            <mxPoint as="offset" />
          </mxGeometry>
        </mxCell>
        <mxCell id="QYxucK7KHDH3wcOCc8d--2" value="Lékař&lt;div&gt;+ID&lt;/div&gt;&lt;div&gt;+jméno&lt;/div&gt;&lt;div&gt;+specializace&lt;/div&gt;" style="rounded=0;whiteSpace=wrap;html=1;" vertex="1" parent="1">
          <mxGeometry x="110" y="250" width="160" height="90" as="geometry" />
        </mxCell>
        <mxCell id="QYxucK7KHDH3wcOCc8d--12" style="edgeStyle=orthogonalEdgeStyle;rounded=0;orthogonalLoop=1;jettySize=auto;html=1;entryX=0.5;entryY=1;entryDx=0;entryDy=0;endArrow=diamondThin;endFill=1;" edge="1" parent="1" source="QYxucK7KHDH3wcOCc8d--3" target="QYxucK7KHDH3wcOCc8d--2">
          <mxGeometry relative="1" as="geometry">
            <Array as="points">
              <mxPoint x="620" y="380" />
              <mxPoint x="190" y="380" />
            </Array>
          </mxGeometry>
        </mxCell>
        <mxCell id="QYxucK7KHDH3wcOCc8d--3" value="Diagnóza&lt;div&gt;+ID&lt;/div&gt;&lt;div&gt;+název&lt;/div&gt;&lt;div&gt;+popis&lt;/div&gt;" style="rounded=0;whiteSpace=wrap;html=1;" vertex="1" parent="1">
          <mxGeometry x="540" y="250" width="160" height="90" as="geometry" />
        </mxCell>
        <mxCell id="QYxucK7KHDH3wcOCc8d--4" value="Léčebná procedura&lt;div&gt;+ID&lt;/div&gt;&lt;div&gt;+název&lt;/div&gt;&lt;div&gt;+popis&lt;/div&gt;&lt;div&gt;+trvání&lt;/div&gt;" style="rounded=0;whiteSpace=wrap;html=1;" vertex="1" parent="1">
          <mxGeometry x="330" y="90" width="160" height="90" as="geometry" />
        </mxCell>
        <mxCell id="QYxucK7KHDH3wcOCc8d--5" value="Medikace&lt;div&gt;+ID&lt;/div&gt;&lt;div&gt;+název&lt;/div&gt;&lt;div&gt;+dávkování&lt;/div&gt;" style="rounded=0;whiteSpace=wrap;html=1;" vertex="1" parent="1">
          <mxGeometry x="530" y="90" width="160" height="90" as="geometry" />
        </mxCell>
      </root>
    </mxGraphModel>
  </diagram>
</mxfile>
